<svg height="682pt" viewBox="-21 -24 682.66669 682" width="682pt" xmlns="http://www.w3.org/2000/svg"><path d="m620.960938 313.070312c-50.089844-10.28125-101.808594-9.628906-151.628907 1.910157-49.804687-11.53125-101.519531-12.1875-151.601562-1.910157-10.972657 2.550782-18.820313 12.207032-19.0625 23.46875v245.332032c.0625.386718.152343.761718.253906 1.132812-.011719.523438.023437 1.050782.097656 1.566406l8.535157 32.652344c2.558593 9.917969 12.496093 16.035156 22.503906 13.867188 45.367187-8.285156 91.964844-6.976563 136.789062 3.835937 1.632813.402344 3.339844.402344 4.96875 0 44.839844-10.808593 91.441406-12.117187 136.8125-3.835937 10.003906 2.175781 19.941406-3.949219 22.484375-13.867188l8.535157-32.652344c.070312-.527343.097656-1.0625.082031-1.601562.113281-.355469.203125-.726562.269531-1.097656v-245.332032c-.242188-11.25-8.082031-20.910156-19.039062-23.46875zm-4.265626 20.898438c1.039063.480469 1.777344 1.441406 1.972657 2.570312v232.074219c-45.777344-9.101562-92.890625-9.101562-138.667969 0v-234.207031c45.035156-9.546875 91.558594-9.695312 136.652344-.4375zm-296.695312 2.570312c.207031-1.148437.972656-2.113281 2.035156-2.578124 45.089844-9.257813 91.601563-9.105469 136.632813.445312v234.207031c-45.777344-9.101562-92.890625-9.101562-138.667969 0zm7.671875 273.28125-5.1875-19.800781c44.949219-9.183593 91.304687-9.007812 136.183594.511719v20.738281c-43.1875-8.691406-87.628907-9.183593-130.996094-1.449219zm283.324219 0c-43.367188-7.753906-87.808594-7.261718-130.996094 1.449219v-20.738281c44.875-9.519531 91.226562-9.695312 136.171875-.511719zm0 0"/><path d="m437.335938 357.871094c0 5.894531-4.777344 10.667968-10.671876 10.667968-5.886718 0-10.664062-4.773437-10.664062-10.667968 0-5.886719 4.777344-10.664063 10.664062-10.664063 5.894532 0 10.671876 4.777344 10.671876 10.664063zm0 0"/><path d="m354.488281 368.242188c8.882813-2.113282 18.140625-2.113282 27.027344 0 .8125.195312 1.648437.296874 2.484375.296874 5.394531-.019531 9.929688-4.0625 10.5625-9.421874.628906-5.355469-2.84375-10.34375-8.085938-11.613282-12.15625-2.914062-24.820312-2.914062-36.972656 0-5.5625 1.515625-8.914062 7.175782-7.570312 12.78125 1.34375 5.605469 6.898437 9.128906 12.539062 7.957032zm0 0"/><path d="m437.335938 400.539062c0 5.890626-4.777344 10.667969-10.671876 10.667969-5.886718 0-10.664062-4.777343-10.664062-10.667969 0-5.890624 4.777344-10.664062 10.664062-10.664062 5.894532 0 10.671876 4.773438 10.671876 10.664062zm0 0"/><path d="m354.488281 410.910156c8.882813-2.117187 18.140625-2.117187 27.027344 0 .8125.195313 1.648437.296875 2.484375.296875 5.394531-.015625 9.929688-4.0625 10.5625-9.417969.628906-5.363281-2.84375-10.347656-8.085938-11.617187-12.15625-2.910156-24.820312-2.910156-36.972656 0-5.5625 1.511719-8.914062 7.171875-7.570312 12.777344s6.898437 9.132812 12.539062 7.960937zm0 0"/><path d="m437.335938 443.207031c0 5.890625-4.777344 10.664063-10.671876 10.664063-5.886718 0-10.664062-4.773438-10.664062-10.664063s4.777344-10.667969 10.664062-10.667969c5.894532 0 10.671876 4.777344 10.671876 10.667969zm0 0"/><path d="m354.488281 453.574219c8.882813-2.113281 18.140625-2.113281 27.027344 0 .8125.195312 1.648437.296875 2.484375.296875 5.394531-.011719 9.929688-4.0625 10.5625-9.417969.628906-5.359375-2.84375-10.347656-8.085938-11.617187-12.15625-2.910157-24.820312-2.910157-36.972656 0-5.5625 1.515624-8.914062 7.175781-7.570312 12.78125 1.34375 5.605468 6.898437 9.128906 12.539062 7.957031zm0 0"/><path d="m437.335938 485.875c0 5.886719-4.777344 10.664062-10.671876 10.664062-5.886718 0-10.664062-4.777343-10.664062-10.664062 0-5.894531 4.777344-10.667969 10.664062-10.667969 5.894532 0 10.671876 4.773438 10.671876 10.667969zm0 0"/><path d="m354.488281 496.242188c8.882813-2.117188 18.140625-2.117188 27.027344 0 .8125.199218 1.648437.296874 2.484375.296874 5.394531-.015624 9.929688-4.058593 10.5625-9.417968.628906-5.363282-2.84375-10.347656-8.085938-11.617188-12.15625-2.910156-24.820312-2.910156-36.972656 0-5.5625 1.511719-8.914062 7.171875-7.570312 12.777344s6.898437 9.132812 12.539062 7.960938zm0 0"/><path d="m437.335938 528.539062c0 5.890626-4.777344 10.664063-10.671876 10.664063-5.886718 0-10.664062-4.773437-10.664062-10.664063 0-5.890624 4.777344-10.667968 10.664062-10.667968 5.894532 0 10.671876 4.777344 10.671876 10.667968zm0 0"/><path d="m394.371094 531.027344c1.332031-5.710938-2.1875-11.425782-7.886719-12.804688-12.148437-2.910156-24.820313-2.910156-36.96875 0-5.566406 1.515625-8.914063 7.171875-7.570313 12.777344 1.339844 5.605469 6.898438 9.132812 12.542969 7.960938 8.882813-2.109376 18.140625-2.109376 27.027344 0 .8125.179687 1.648437.261718 2.484375.242187 4.929688 0 9.21875-3.382813 10.371094-8.175781zm0 0"/><path d="m522.667969 357.871094c0 5.894531-4.777344 10.667968-10.664063 10.667968-5.894531 0-10.671875-4.773437-10.671875-10.667968 0-5.886719 4.777344-10.664063 10.671875-10.664063 5.886719 0 10.664063 4.777344 10.664063 10.664063zm0 0"/><path d="m557.152344 368.242188c8.886718-2.113282 18.140625-2.113282 27.027344 0 .816406.195312 1.652343.296874 2.484374.296874 5.402344-.019531 9.933594-4.0625 10.5625-9.421874.636719-5.355469-2.839843-10.34375-8.085937-11.613282-12.148437-2.914062-24.820313-2.914062-36.96875 0-3.808594.792969-6.882813 3.589844-8.027344 7.304688-1.140625 3.71875-.175781 7.765625 2.53125 10.558594 2.703125 2.792968 6.714844 3.894531 10.46875 2.875zm0 0"/><path d="m522.667969 400.539062c0 5.890626-4.777344 10.667969-10.664063 10.667969-5.894531 0-10.671875-4.777343-10.671875-10.667969 0-5.890624 4.777344-10.664062 10.671875-10.664062 5.886719 0 10.664063 4.773438 10.664063 10.664062zm0 0"/><path d="m557.152344 410.910156c8.886718-2.117187 18.140625-2.117187 27.027344 0 .816406.195313 1.652343.296875 2.484374.296875 5.402344-.015625 9.933594-4.0625 10.5625-9.417969.636719-5.363281-2.839843-10.347656-8.085937-11.617187-12.148437-2.910156-24.820313-2.910156-36.96875 0-3.808594.789063-6.882813 3.589844-8.027344 7.304687-1.140625 3.71875-.175781 7.761719 2.53125 10.554688 2.703125 2.792969 6.714844 3.898438 10.46875 2.878906zm0 0"/><path d="m522.667969 443.207031c0 5.890625-4.777344 10.664063-10.664063 10.664063-5.894531 0-10.671875-4.773438-10.671875-10.664063s4.777344-10.667969 10.671875-10.667969c5.886719 0 10.664063 4.777344 10.664063 10.667969zm0 0"/><path d="m557.152344 453.574219c8.886718-2.113281 18.140625-2.113281 27.027344 0 .816406.195312 1.652343.296875 2.484374.296875 5.402344-.011719 9.933594-4.0625 10.5625-9.417969.636719-5.359375-2.839843-10.347656-8.085937-11.617187-12.148437-2.910157-24.820313-2.910157-36.96875 0-3.808594.792968-6.882813 3.589843-8.027344 7.3125-1.140625 3.714843-.175781 7.757812 2.53125 10.550781 2.703125 2.792969 6.714844 3.894531 10.46875 2.875zm0 0"/><path d="m522.667969 485.875c0 5.886719-4.777344 10.664062-10.664063 10.664062-5.894531 0-10.671875-4.777343-10.671875-10.664062 0-5.894531 4.777344-10.667969 10.671875-10.667969 5.886719 0 10.664063 4.773438 10.664063 10.667969zm0 0"/><path d="m557.152344 496.242188c8.886718-2.117188 18.140625-2.117188 27.027344 0 .816406.195312 1.652343.296874 2.484374.296874 5.402344-.015624 9.933594-4.058593 10.5625-9.417968.636719-5.363282-2.839843-10.347656-8.085937-11.617188-12.148437-2.910156-24.820313-2.910156-36.96875 0-3.808594.789063-6.882813 3.59375-8.027344 7.308594-1.140625 3.714844-.175781 7.757812 2.53125 10.550781 2.703125 2.800781 6.714844 3.898438 10.46875 2.878907zm0 0"/><path d="m522.667969 528.539062c0 5.890626-4.777344 10.664063-10.664063 10.664063-5.894531 0-10.671875-4.773437-10.671875-10.664063 0-5.890624 4.777344-10.667968 10.671875-10.667968 5.886719 0 10.664063 4.777344 10.664063 10.667968zm0 0"/><path d="m557.152344 538.90625c8.886718-2.109375 18.140625-2.109375 27.027344 0 .816406.199219 1.652343.296875 2.484374.296875 5.402344-.011719 9.933594-4.054687 10.5625-9.417969.636719-5.359375-2.839843-10.347656-8.085937-11.617187-12.148437-2.910157-24.820313-2.910157-36.96875 0-3.808594.792969-6.882813 3.59375-8.027344 7.3125-1.140625 3.714843-.175781 7.757812 2.53125 10.550781 2.703125 2.796875 6.714844 3.894531 10.46875 2.875zm0 0"/><path d="m608 133.871094h-266.667969v-30.929688c.019531-11.941406-6.625-22.890625-17.226562-28.386718l-133.738281-69.570313c-12.34375-6.425781-27.050782-6.425781-39.398438 0l-133.742188 69.617187c-10.585937 5.480469-17.23046825 16.414063-17.226562 28.339844v478.929688c0 17.675781 14.328125 32 32.003906 32h234.660156c5.894532 0 10.671876-4.773438 10.671876-10.664063s-4.777344-10.667969-10.671876-10.667969h-10.664062v-117.332031c0-11.785156-9.550781-21.335937-21.332031-21.335937h-53.335938c-3.753906.019531-7.433593 1.046875-10.664062 2.964844-3.230469-1.917969-6.914063-2.945313-10.667969-2.964844h-53.335938c-11.78125 0-21.332031 9.550781-21.332031 21.335937v117.332031h-53.328125c-5.894531 0-10.671875-4.773437-10.671875-10.667968v-384h597.335938v85.335937c0 5.890625 4.773437 10.664063 10.664062 10.664063 5.894531 0 10.667969-4.773438 10.667969-10.664063v-117.332031c0-17.675781-14.324219-32.003906-32-32.003906zm-373.332031 341.335937v117.332031h-53.335938v-117.332031zm-128.003907 0h53.335938v117.332031h-53.335938zm-85.332031-372.265625c.007813-3.976562 2.222657-7.617187 5.753907-9.453125l133.726562-69.578125c6.175781-3.203125 13.523438-3.203125 19.699219 0l133.75 69.621094c3.511719 1.832031 5.71875 5.449219 5.738281 9.410156v73.597656h-298.667969zm320 73.597656v-21.332031h266.667969c5.890625 0 10.667969 4.773438 10.667969 10.667969v10.664062zm0 0"/><path d="m170.667969 48.539062c-29.457031 0-53.332031 23.878907-53.332031 53.332032 0 29.457031 23.875 53.335937 53.332031 53.335937 29.453125 0 53.332031-23.878906 53.332031-53.335937-.035156-29.4375-23.890625-53.296875-53.332031-53.332032zm0 85.332032c-17.675781 0-32-14.324219-32-32 0-17.671875 14.324219-31.996094 32-31.996094 17.671875 0 32 14.324219 32 31.996094 0 8.492187-3.371094 16.625-9.371094 22.632812-6 6-14.140625 9.367188-22.628906 9.367188zm0 0"/><path d="m213.335938 539.203125c0 5.894531-4.777344 10.671875-10.667969 10.671875s-10.664063-4.777344-10.664063-10.671875c0-5.886719 4.773438-10.664063 10.664063-10.664063s10.667969 4.777344 10.667969 10.664063zm0 0"/><path d="m149.332031 539.203125c0 5.894531-4.777343 10.671875-10.664062 10.671875-5.894531 0-10.667969-4.777344-10.667969-10.671875 0-5.886719 4.773438-10.664063 10.667969-10.664063 5.886719 0 10.664062 4.777344 10.664062 10.664063zm0 0"/><path d="m181.332031 411.207031c0 11.78125 9.550781 21.332031 21.335938 21.332031h53.332031c11.785156 0 21.335938-9.550781 21.335938-21.332031v-85.332031c0-11.78125-9.550782-21.332031-21.335938-21.332031h-53.332031c-11.785157 0-21.335938 9.550781-21.335938 21.332031zm21.335938-85.332031h53.332031v85.332031h-53.332031zm0 0"/><path d="m138.667969 304.542969h-53.335938c-11.78125 0-21.332031 9.550781-21.332031 21.332031v85.332031c0 11.78125 9.550781 21.332031 21.332031 21.332031h53.335938c11.78125 0 21.332031-9.550781 21.332031-21.332031v-85.332031c0-11.78125-9.550781-21.332031-21.332031-21.332031zm0 106.664062h-53.335938v-85.332031h53.335938zm0 0"/><path d="m202.667969 283.207031h53.332031c11.785156 0 21.335938-9.554687 21.335938-21.335937v-21.332032c0-11.785156-9.550782-21.335937-21.335938-21.335937h-53.332031c-11.785157 0-21.335938 9.550781-21.335938 21.335937v21.332032c0 11.78125 9.550781 21.335937 21.335938 21.335937zm0-42.667969h53.332031v21.332032h-53.332031zm0 0"/><path d="m437.335938 283.207031c11.78125 0 21.332031-9.554687 21.332031-21.335937v-21.332032c0-11.785156-9.550781-21.335937-21.332031-21.335937h-53.335938c-11.78125 0-21.332031 9.550781-21.332031 21.335937v21.332032c0 11.78125 9.550781 21.335937 21.332031 21.335937zm-53.335938-42.667969h53.335938v21.332032h-53.335938zm0 0"/><path d="m554.667969 283.207031c11.78125 0 21.332031-9.554687 21.332031-21.335937v-21.332032c0-11.785156-9.550781-21.335937-21.332031-21.335937h-53.335938c-11.78125 0-21.332031 9.550781-21.332031 21.335937v21.332032c0 11.78125 9.550781 21.335937 21.332031 21.335937zm-53.335938-42.667969h53.335938v21.332032h-53.335938zm0 0"/><path d="m160 240.539062c0-11.785156-9.550781-21.335937-21.332031-21.335937h-53.335938c-11.78125 0-21.332031 9.550781-21.332031 21.335937v21.332032c0 11.78125 9.550781 21.335937 21.332031 21.335937h53.335938c11.78125 0 21.332031-9.554687 21.332031-21.335937zm-21.332031 21.332032h-53.335938v-21.332032h53.335938zm0 0"/></svg>