<?xml version="1.0" encoding="iso-8859-1"?>
<!-- Generator: Adobe Illustrator 19.0.0, SVG Export Plug-In . SVG Version: 6.00 Build 0)  -->
<svg version="1.1" id="Capa_1" xmlns="http://www.w3.org/2000/svg" xmlns:xlink="http://www.w3.org/1999/xlink" x="0px" y="0px"
	 viewBox="0 0 480 480" style="enable-background:new 0 0 480 480;" xml:space="preserve">
<g>
	<g>
		<path d="M464,144c3.136,0,6.416-0.456,10.008-1.392c3.528-0.912,5.992-4.096,5.992-7.744V104c0-0.096-0.056-0.184-0.056-0.28
			c-0.032-0.856-0.144-1.704-0.448-2.528L456,38.544V8c0-4.416-3.584-8-8-8H32c-4.416,0-8,3.584-8,8v30.544L0.504,101.192
			c-0.304,0.824-0.424,1.672-0.448,2.528C0.056,103.816,0,103.904,0,104v30.864c0,3.648,2.464,6.832,5.992,7.744
			C9.584,143.544,12.864,144,16,144c9.04,0,17.296-3.128,24-8.208V320H8c-4.416,0-8,3.584-8,8v32c0,4.416,3.584,8,8,8h14.104
			L0.176,470.328c-0.504,2.36,0.088,4.832,1.6,6.704C3.296,478.912,5.584,480,8,480h464c2.416,0,4.704-1.088,6.224-2.968
			c1.512-1.88,2.104-4.344,1.6-6.704L457.896,368H472c4.416,0,8-3.584,8-8v-32c0-4.416-3.584-8-8-8h-32V135.792
			C446.704,140.872,454.96,144,464,144z M464,128c-10.432,0-19.328-6.688-22.632-16H464V128z M40,16h400v16h-32h-56h-56h-56h-56h-56
			H72H40V16z M307.528,285.576c-0.384-0.536-0.784-1.048-1.2-1.544l15.728-17.472c3.08-3.416,8.816-3.416,11.888,0l15.728,17.472
			c-0.424,0.496-0.824,1.008-1.2,1.544L328,314.232L307.528,285.576z M312.456,320h-48.904l17.944-25.12
			c2.256-3.176,6.672-3.968,10.04-2.416c1.2,0.592,2.232,1.376,2.968,2.416L312.456,320z M361.496,294.88
			c0.736-1.04,1.768-1.824,2.968-2.416c3.368-1.552,7.784-0.76,10.048,2.416L392.456,320h-48.904L361.496,294.88z M387.528,285.576
			c-4.496-6.296-11.8-10.048-19.528-10.048c-1.368,0-2.696,0.256-4.024,0.488l-18.136-20.152c-2.68-2.976-6.128-4.968-9.832-6.192
			v-11.904l42.528-14.176c3.064-1.024,5.216-3.8,5.448-7.024s-1.504-6.272-4.4-7.72l-48-24c-2.472-1.232-5.424-1.104-7.784,0.352
			c-2.36,1.456-3.8,4.024-3.8,6.8v57.672c-3.712,1.224-7.16,3.216-9.832,6.192l-18.136,20.152c-1.328-0.232-2.656-0.488-4.024-0.488
			c-7.728,0-15.032,3.752-19.528,10.048L243.88,320h-16.336c2.76-4.728,4.456-10.144,4.456-16c0-14.904-10.288-27.352-24.104-30.896
			c0.016-0.368,0.104-0.736,0.104-1.104c0-14.904-10.288-27.352-24.104-30.896c0.016-0.368,0.104-0.736,0.104-1.104
			c0-17.648-14.352-32-32-32s-32,14.352-32,32c0,0.368,0.088,0.736,0.104,1.104C106.288,244.648,96,257.096,96,272
			c0,0.368,0.088,0.736,0.104,1.104C82.288,276.648,72,289.096,72,304c0,5.856,1.696,11.272,4.448,16H56V135.792
			c6.704,5.08,14.96,8.208,24,8.208c13.128,0,24.704-6.448,32-16.248c7.296,9.8,18.872,16.248,32,16.248s24.704-6.448,32-16.248
			c7.296,9.8,18.872,16.248,32,16.248s24.704-6.448,32-16.248c7.296,9.8,18.872,16.248,32,16.248s24.704-6.448,32-16.248
			c7.296,9.8,18.872,16.248,32,16.248s24.704-6.448,32-16.248c7.296,9.8,18.872,16.248,32,16.248c9.04,0,17.296-3.128,24-8.208V320
			h-11.88L387.528,285.576z M336,220.904v-15.96l19.152,9.576L336,220.904z M119.568,276.24c-2.36-1.328-4.856-2.416-7.536-3.112
			C112.016,272.752,112,272.376,112,272c0-8.824,7.176-16,16-16c0.24,0,0.464,0.064,0.696,0.072c0.104,0.008,0.2,0.056,0.312,0.064
			c6.32,0.4,11.8,4.496,13.96,10.44c0.016,0.032,0.04,0.064,0.056,0.096C143.616,268.344,144,270.12,144,272
			c0,0.376-0.016,0.752-0.048,1.128c-2.68,0.704-5.176,1.784-7.536,3.112c-0.648,0.368-1.296,0.736-1.92,1.144
			c-0.928,0.608-1.824,1.24-2.68,1.944c-0.672,0.544-1.28,1.152-1.904,1.752c-0.624,0.608-1.344,1.12-1.92,1.768
			c-0.576-0.656-1.296-1.168-1.92-1.768c-0.624-0.6-1.232-1.208-1.904-1.752c-0.856-0.704-1.752-1.328-2.68-1.944
			C120.864,276.976,120.224,276.608,119.568,276.24z M120,304c0,8.824-7.176,16-16,16c-8.824,0-16-7.176-16-16
			c0-8.824,7.176-16,16-16c0.24,0,0.464,0.064,0.696,0.072c0.104,0.008,0.2,0.056,0.312,0.064c6.32,0.4,11.8,4.496,13.96,10.44
			c0.016,0.032,0.04,0.064,0.056,0.096C119.616,300.344,120,302.12,120,304z M136,240c0-8.824,7.176-16,16-16
			c8.824,0,16,7.176,16,16c0,0.376-0.016,0.752-0.048,1.136c-0.2,0.048-0.376,0.144-0.576,0.2c-2.792,0.792-5.432,1.912-7.856,3.384
			c-0.112,0.072-0.232,0.12-0.344,0.192c-1.04,0.648-2,1.384-2.96,2.144c-0.464,0.368-0.92,0.736-1.36,1.128
			c-0.864,0.768-1.68,1.56-2.456,2.408c-0.12,0.136-0.272,0.248-0.392,0.384c-0.12-0.136-0.272-0.248-0.392-0.384
			c-0.776-0.856-1.592-1.648-2.456-2.408c-0.44-0.392-0.904-0.76-1.36-1.128c-0.96-0.76-1.92-1.496-2.96-2.144
			c-0.112-0.072-0.232-0.12-0.344-0.192c-2.432-1.472-5.064-2.592-7.856-3.384c-0.216-0.064-0.392-0.152-0.592-0.2
			C136.016,240.752,136,240.376,136,240z M136.976,298.688c0.016-0.04,0.048-0.072,0.056-0.112c2.16-5.944,7.64-10.04,13.96-10.44
			c0.112-0.008,0.208-0.056,0.312-0.064C151.536,288.064,151.76,288,152,288s0.464,0.064,0.696,0.072
			c0.104,0.008,0.2,0.056,0.312,0.064c6.32,0.4,11.8,4.496,13.96,10.44c0.016,0.032,0.04,0.064,0.056,0.096
			C167.616,300.344,168,302.12,168,304c0,8.824-7.176,16-16,16c-8.824,0-16-7.176-16-16C136,302.128,136.384,300.36,136.976,298.688
			z M167.568,276.24c-2.36-1.328-4.856-2.416-7.536-3.112C160.016,272.752,160,272.376,160,272c0-1.872,0.384-3.64,0.976-5.312
			c0.016-0.04,0.048-0.072,0.056-0.112c2.16-5.944,7.64-10.04,13.96-10.44c0.112-0.008,0.208-0.056,0.312-0.064
			C175.536,256.064,175.76,256,176,256c8.824,0,16,7.176,16,16c0,0.376-0.016,0.752-0.048,1.128
			c-2.68,0.704-5.176,1.784-7.536,3.112c-0.648,0.368-1.296,0.736-1.92,1.144c-0.928,0.608-1.824,1.24-2.68,1.944
			c-0.672,0.544-1.28,1.152-1.904,1.752c-0.624,0.608-1.344,1.12-1.92,1.768c-0.576-0.656-1.296-1.168-1.92-1.768
			c-0.624-0.6-1.232-1.208-1.904-1.752c-0.856-0.704-1.752-1.328-2.68-1.944C168.864,276.976,168.224,276.608,167.568,276.24z
			 M184.976,298.688c0.016-0.04,0.048-0.072,0.056-0.112c2.16-5.944,7.64-10.04,13.96-10.44c0.112-0.008,0.208-0.056,0.312-0.064
			C199.536,288.064,199.76,288,200,288c8.824,0,16,7.176,16,16c0,8.824-7.176,16-16,16c-8.824,0-16-7.176-16-16
			C184,302.128,184.384,300.36,184.976,298.688z M102.528,112c-3.312,9.288-12.112,16-22.528,16s-19.216-6.712-22.528-16H102.528z
			 M59.544,96l18-48h40.208l-12,48H59.544z M166.528,112c-3.312,9.288-12.112,16-22.528,16s-19.216-6.712-22.528-16H166.528z
			 M122.248,96l12-48h40.688l-6,48H122.248z M185.064,96l6-48H232v48H185.064z M230.528,112c-3.312,9.288-12.112,16-22.528,16
			s-19.216-6.712-22.528-16H230.528z M248,96V48h40.936l6,48H248z M294.528,112c-3.312,9.288-12.112,16-22.528,16
			s-19.216-6.712-22.528-16H294.528z M311.064,96l-6-48h40.688l12,48H311.064z M358.528,112c-3.312,9.288-12.112,16-22.528,16
			s-19.216-6.712-22.528-16H358.528z M400,128c-10.416,0-19.216-6.712-22.528-16h45.056C419.216,121.288,410.416,128,400,128z
			 M374.248,96l-12-48h40.208l18,48H374.248z M16,128v-16h22.632C35.328,121.312,26.432,128,16,128z M19.544,96l18-48h22.912l-18,48
			H19.544z M462.104,464H17.896l20.576-96h403.064L462.104,464z M464,336v16h-16H32H16v-16h232h160H464z M437.544,96l-18-48h22.912
			l18,48H437.544z"/>
	</g>
</g>
<g>
	<g>
		<path d="M288,384c-19.304,0-37.84,0.064-48,12.104C229.84,384.064,211.304,384,192,384c-4.416,0-8,3.584-8,8
			c0,36.12,23.224,39.616,48,39.952V448h16v-16.048c24.776-0.336,48-3.832,48-39.952C296,387.584,292.416,384,288,384z
			 M200.464,400.072c21.76,0.408,29.28,3,31.072,15.864C209.776,415.528,202.256,412.928,200.464,400.072z M248.464,415.928
			c1.792-12.856,9.312-15.448,31.072-15.864C277.744,412.92,270.224,415.52,248.464,415.928z"/>
	</g>
</g>
<g>
</g>
<g>
</g>
<g>
</g>
<g>
</g>
<g>
</g>
<g>
</g>
<g>
</g>
<g>
</g>
<g>
</g>
<g>
</g>
<g>
</g>
<g>
</g>
<g>
</g>
<g>
</g>
<g>
</g>
</svg>
