<?xml version="1.0" encoding="iso-8859-1"?>
<!-- Generator: Adobe Illustrator 19.0.0, SVG Export Plug-In . SVG Version: 6.00 Build 0)  -->
<svg version="1.1" id="Capa_1" xmlns="http://www.w3.org/2000/svg" xmlns:xlink="http://www.w3.org/1999/xlink" x="0px" y="0px"
	 viewBox="0 0 480.001 480.001" style="enable-background:new 0 0 480.001 480.001;" xml:space="preserve">
<g>
	<g>
		<path d="M468.241,11.649c-5.02-4.956-11.251-8.511-18.072-10.312c-3.312-0.912-6.733-1.361-10.168-1.336h-320
			c-30.913,0.035-55.965,25.087-56,56v344h-56c-4.418,0-8,3.582-8,8v16c0.035,30.913,25.087,55.965,56,56h320
			c22.08-0.026,39.974-17.92,40-40v-360h56c4.418,0,8-3.582,8-8v-32C479.993,29.365,475.763,19.168,468.241,11.649z M56.001,464.001
			c-22.08-0.026-39.974-17.92-40-40v-8h304v8c-0.02,15.053,6.038,29.476,16.8,40H56.001z M407.385,16.977
			c-0.472,0.664-0.88,1.368-1.312,2.064c-0.838,1.34-1.594,2.729-2.264,4.16c-0.368,0.8-0.712,1.6-1.032,2.4
			c-0.587,1.55-1.078,3.134-1.472,4.744c-0.192,0.752-0.424,1.488-0.568,2.256c-0.476,2.438-0.723,4.916-0.736,7.4v392v8
			c0,13.255-10.745,24-24,24c-22.08-0.026-39.974-17.92-40-40v-16c0-4.418-3.582-8-8-8h-248v-344c0.026-22.08,17.92-39.974,40-40
			h288C407.777,16.305,407.609,16.665,407.385,16.977z M464.001,64.001h-48v-24c0-13.255,10.745-24,24-24
			c2.03-0.016,4.053,0.254,6.008,0.8c4.122,1.078,7.891,3.212,10.936,6.192c4.506,4.515,7.043,10.629,7.056,17.008V64.001z"/>
	</g>
</g>
<g>
	<g>
		<path d="M240.001,96.001c-30.928,0-56,25.072-56,56c0.035,30.913,25.087,55.965,56,56c30.928,0,56-25.072,56-56
			C296.001,121.073,270.928,96.001,240.001,96.001z M240.001,192.001c-22.091,0-40-17.909-40-40c0.026-22.08,17.92-39.974,40-40
			c22.091,0,40,17.909,40,40S262.092,192.001,240.001,192.001z"/>
	</g>
</g>
<g>
	<g>
		<path d="M359.434,296.487c-0.074-1.248-0.439-2.461-1.066-3.542l-46.832-81.096c1.87-1.118,3.502-2.594,4.8-4.344
			c3.575-6.486,4.311-14.161,2.032-21.208c-0.776-2.957-1.046-6.025-0.8-9.072c1.547-2.441,3.472-4.62,5.704-6.456
			c6.166-4.429,10.2-11.233,11.128-18.768c-0.914-7.526-4.927-14.328-11.072-18.768c-2.232-1.836-4.157-4.015-5.704-6.456
			c-0.246-3.047,0.024-6.115,0.8-9.072c2.278-7.044,1.543-14.717-2.032-21.2c-5.104-5.436-12.232-8.515-19.688-8.504
			c-2.991-0.197-5.931-0.878-8.704-2.016c-1.902-2.27-3.423-4.834-4.504-7.592c-2.313-7.144-7.487-13.008-14.288-16.192
			c-7.2-1.421-14.666,0.248-20.576,4.6c-2.647,1.691-5.568,2.909-8.632,3.6c-3.053-0.694-5.963-1.912-8.6-3.6
			c-5.911-4.35-13.376-6.019-20.576-4.6c-6.806,3.181-11.983,9.05-14.288,16.2c-1.081,2.755-2.602,5.317-4.504,7.584
			c-2.783,1.139-5.734,1.815-8.736,2c-7.449,0.002-14.565,3.082-19.664,8.512c-3.575,6.486-4.311,14.161-2.032,21.208
			c0.776,2.957,1.046,6.025,0.8,9.072c-1.547,2.441-3.472,4.62-5.704,6.456c-6.154,4.435-10.176,11.238-11.096,18.768
			c0.914,7.526,4.927,14.328,11.072,18.768c2.232,1.836,4.157,4.015,5.704,6.456c0.246,3.047-0.024,6.115-0.8,9.072
			c-2.278,7.044-1.543,14.717,2.032,21.2c1.304,1.762,2.95,3.242,4.84,4.352l-46.848,81.112c-2.217,3.822-0.916,8.717,2.906,10.934
			c1.081,0.627,2.294,0.992,3.542,1.066l31.76,1.92l17.48,26.504c1.491,2.247,4.015,3.592,6.712,3.576h0.24
			c2.772-0.084,5.303-1.598,6.688-4l49.072-84.96l49.072,84.96c1.385,2.402,3.916,3.916,6.688,4h0.24
			c2.689,0.001,5.198-1.348,6.68-3.592l17.48-26.504l31.76-1.92C356.331,304.684,359.695,300.897,359.434,296.487z M183.553,313.745
			l-9.84-14.92l13.488-23.4l-13.856-8l-13.52,23.416l-17.88-1.088l42.488-73.6c2.615,0.172,5.181,0.794,7.584,1.84
			c1.902,2.27,3.423,4.834,4.504,7.592c2.313,7.144,7.487,13.008,14.288,16.192c1.601,0.526,3.275,0.796,4.96,0.8
			c3.655-0.156,7.232-1.109,10.48-2.792L183.553,313.745z M223.825,223.113c-2.47,1.599-5.19,2.772-8.048,3.472
			c-2.07-2.31-3.697-4.981-4.8-7.88c-2.014-5.245-5.286-9.915-9.528-13.6c-4.848-2.93-10.343-4.62-16-4.92
			c-3.027-0.185-6.001-0.874-8.8-2.04c-0.267-3.01-0.015-6.043,0.744-8.968c1.469-5.518,1.557-11.312,0.256-16.872
			c-2.188-5.123-5.61-9.624-9.96-13.104c-1.976-1.912-6.088-5.816-6.088-7.2c0-1.384,4.112-5.288,6.088-7.2
			c4.333-3.49,7.735-7.997,9.904-13.12c1.3-5.554,1.215-11.343-0.248-16.856c-0.751-2.91-1.022-5.923-0.8-8.92
			c2.811-1.215,5.814-1.925,8.872-2.096c5.658-0.3,11.154-1.993,16-4.928c4.24-3.684,7.51-8.355,9.52-13.6
			c1.106-2.869,2.697-5.526,4.704-7.856h0.168c2.823,0.755,5.518,1.922,8,3.464c4.861,3.143,10.423,5.036,16.192,5.512
			c5.763-0.478,11.32-2.371,16.176-5.512c2.487-1.566,5.202-2.737,8.048-3.472c2.07,2.31,3.697,4.981,4.8,7.88
			c2.014,5.245,5.286,9.915,9.528,13.6c4.848,2.93,10.343,4.62,16,4.92c3.027,0.185,6.001,0.874,8.8,2.04
			c0.267,3.01,0.015,6.043-0.744,8.968c-1.469,5.518-1.557,11.312-0.256,16.872c2.188,5.123,5.61,9.624,9.96,13.104
			c1.976,1.88,6.088,5.784,6.088,7.2s-4.112,5.288-6.088,7.2c-4.333,3.49-7.735,7.997-9.904,13.12
			c-1.3,5.554-1.215,11.343,0.248,16.856c0.752,2.91,1.022,5.923,0.8,8.92c-2.811,1.215-5.814,1.925-8.872,2.096
			c-5.658,0.3-11.154,1.993-16,4.928c-4.24,3.684-7.51,8.355-9.52,13.6c-1.106,2.869-2.697,5.526-4.704,7.856
			c-2.893-0.67-5.649-1.837-8.144-3.448c-4.866-3.152-10.437-5.052-16.216-5.528C234.237,218.079,228.681,219.972,223.825,223.113z
			 M320.161,290.841l-13.52-23.416l-13.856,8l13.504,23.4l-9.84,14.92l-42.68-73.904c4.683,2.64,10.213,3.343,15.408,1.96
			c6.806-3.181,11.983-9.05,14.288-16.2c1.09-2.757,2.622-5.319,4.536-7.584c2.404-1.045,4.969-1.667,7.584-1.84l42.488,73.6
			L320.161,290.841z"/>
	</g>
</g>
<g>
</g>
<g>
</g>
<g>
</g>
<g>
</g>
<g>
</g>
<g>
</g>
<g>
</g>
<g>
</g>
<g>
</g>
<g>
</g>
<g>
</g>
<g>
</g>
<g>
</g>
<g>
</g>
<g>
</g>
</svg>
