<svg height="512" viewBox="0 0 57 57" width="512" xmlns="http://www.w3.org/2000/svg"><g id="012---Build-Road"><path id="Shape" d="m0 33.18 13 7.8v-3.66l-13-7.8z"/><path id="Shape" d="m42.13.18-41.26 27.53 13.13 7.85 41.12-27.75zm-27.26 27.16c-3.61 2.44-3.46 2.41-3.87 2.41-.4403997.0009866-.8296015-.2862564-.9584701-.7073807-.1288687-.4211244.0329363-.8769815.3984701-1.1226193l3.31-2.24c.2965304-.2000687.6772713-.2267428.9988011-.0699743.3215298.1567686.5350006.4731628.56.8300001.0249994.3568372-.1422706.6999055-.4388011.8999742zm8.29-5.61c-3.68 2.49-3.47 2.42-3.88 2.42-.4403997.0009866-.8296015-.2862564-.9584701-.7073807-.1288687-.4211244.0329363-.8769815.3984701-1.1226193l3.28-2.24c.4536294-.2598999 1.0308949-.1265113 1.3245162.3060557.2936212.432567.2044867 1.0182999-.2045162 1.3439443zm8.28-5.6c-3.67 2.48-3.46 2.41-3.87 2.41-.4362819-.0010294-.8215408-.2847832-.9519337-.7011252-.1303928-.416342.0241803-.869164.3819337-1.1188748l3.31-2.25c.2200282-.1488534.4902421-.2040417.7510177-.1533875.2607756.0506543.4906795.2029878.6389823.4233875.311997.4556442.1955974 1.0779346-.26 1.39zm8.28-5.6c-3.61 2.44-3.46 2.41-3.87 2.41-.4403997.0009866-.8296015-.2862564-.9584701-.7073807-.1288687-.4211244.0329363-.8769815.3984701-1.1226193l3.31-2.24c.2965304-.20006874.6772713-.22674278.9988011-.06997425s.5350006.47316275.56.83000002c.0249994.35683726-.1422706.69990553-.4388011.89997423zm5-3.36c-.4583963.30927943-1.0807205.1883963-1.39-.27000003-.3092794-.45839632-.1883963-1.0807205.27-1.38999997l.87-.59c.4583963-.30927943 1.0807205-.18839631 1.39.27000002.3092794.45839633.1883963 1.08072051-.27 1.38999998z"/><path id="Shape" d="m56 9.63-41 27.65v3.59l41-27.65z"/><path id="Shape" d="m44 31c-7.1797017 0-13 5.8202983-13 13s5.8202983 13 13 13 13-5.8202983 13-13-5.8202983-13-13-13zm6 15h-4v4c0 1.1045695-.8954305 2-2 2s-2-.8954305-2-2v-4h-4c-1.1045695 0-2-.8954305-2-2s.8954305-2 2-2h4v-4c0-1.1045695.8954305-2 2-2s2 .8954305 2 2v4h4c1.1045695 0 2 .8954305 2 2s-.8954305 2-2 2z"/></g></svg>